<?xml version="1.0" encoding="utf-8"?>
<!-- Generator: Adobe Illustrator 16.0.0, SVG Export Plug-In . SVG Version: 6.00 Build 0)  -->
<!DOCTYPE svg PUBLIC "-//W3C//DTD SVG 1.1//EN" "http://www.w3.org/Graphics/SVG/1.1/DTD/svg11.dtd">
<svg version="1.1" id="Layer_1" xmlns="http://www.w3.org/2000/svg" xmlns:xlink="http://www.w3.org/1999/xlink" x="0px" y="0px"
	 width="100px" height="100px" viewBox="0 0 100 100" enable-background="new 0 0 100 100" xml:space="preserve">
<path d="M49.936-1l-7.848,15.304c-0.892,1.664-2.487,1.509-4.082,0.58l-5.684-3.075l4.233,23.511c0.89,4.294-1.965,4.294-3.377,2.44
	L23.261,26.15l-1.61,5.895c-0.184,0.776-0.999,1.588-2.224,1.394l-12.54-2.76l3.292,12.522c0.704,2.785,1.257,3.939-0.71,4.674
	L5,50.071l21.585,18.33c0.854,0.693,1.288,1.938,0.982,3.069l-1.889,6.483c7.433-0.895,14.096-1.695,21.529-2.593
	c0.659-0.009,1.754,0.579,1.749,1.375l-0.986,23.748h3.615l-0.564-23.696c-0.006-0.795,0.986-1.433,1.648-1.425
	c7.432,0.896,14.098,1.696,21.529,2.592l-1.887-6.481c-0.306-1.13,0.124-2.376,0.982-3.069l21.584-18.332l-4.473-2.198
	c-1.962-0.734-1.414-1.886-0.707-4.674l3.292-12.522l-12.537,2.76c-1.226,0.191-2.043-0.621-2.229-1.394l-1.61-5.895l-9.918,11.609
	c-1.408,1.857-4.266,1.857-3.373-2.44l4.23-23.509l-5.684,3.077c-1.594,0.93-3.19,1.083-4.081-0.581L49.936-1z"/>
</svg>
